<svg xmlns="http://www.w3.org/2000/svg" width="1200" height="630" viewBox="0 0 1200 630">
  <!-- Background -->
  <rect width="1200" height="630" fill="#ffffff"/>

  <!-- Top accent bar -->
  <rect x="0" y="0" width="1200" height="5" fill="#1662dd"/>

  <!-- Key icon (favicon shape, scaled 2.6×) -->
  <g transform="translate(80, 96) scale(2.6)">
    <path fill-rule="evenodd" fill="#1662dd"
      d="M15 13A11 11 0 0 1 15 35A11 11 0 0 1 15 13Z
         M15 18A6 6 0 0 0 15 30A6 6 0 0 0 15 18Z"/>
    <rect x="24" y="21" width="20" height="6" rx="1" fill="#1662dd"/>
    <rect x="35" y="27" width="4" height="5" rx="1" fill="#1662dd"/>
    <rect x="28" y="27" width="4" height="5" rx="1" fill="#1662dd"/>
  </g>

  <!-- Title -->
  <text x="80" y="358" font-family="-apple-system, BlinkMacSystemFont, 'Segoe UI', Helvetica, Arial, sans-serif" font-size="72" font-weight="700" letter-spacing="-1" fill="#1a1a1a">OAuth Token Policy</text>

  <!-- Subtitle line 1 -->
  <text x="80" y="420" font-family="-apple-system, BlinkMacSystemFont, 'Segoe UI', Helvetica, Arial, sans-serif" font-size="30" fill="#555555">Token lifetime and session policy recommendations</text>
  <!-- Subtitle line 2 -->
  <text x="80" y="460" font-family="-apple-system, BlinkMacSystemFont, 'Segoe UI', Helvetica, Arial, sans-serif" font-size="30" fill="#555555">grounded in NIST SP 800-63B and RFC 9700.</text>

  <!-- Domain -->
  <text x="80" y="578" font-family="-apple-system, BlinkMacSystemFont, 'Segoe UI', Helvetica, Arial, sans-serif" font-size="22" fill="#1662dd">token-policy.nalegave.com</text>

  <!-- Bottom rule -->
  <rect x="80" y="548" width="1040" height="1" fill="#e5e5e5"/>
</svg>
