<svg xmlns="http://www.w3.org/2000/svg" width="1200" height="630" viewBox="0 0 1200 630">
  <!-- Background -->
  <rect width="1200" height="630" fill="#ffffff"/>

  <!-- Top accent bar -->
  <rect x="0" y="0" width="1200" height="5" fill="#1662dd"/>

  <!-- Bolt icon (favicon shape, scaled ~2.5×, positioned top-left content area) -->
  <g transform="translate(80, 100) scale(2.6)">
    <path fill="#1662dd" d="M25.946 44.938c-.664.845-2.021.375-2.021-.698V33.937a2.26 2.26 0 0 0-2.262-2.262H10.287c-.92 0-1.456-1.04-.92-1.788l7.48-10.471c1.07-1.497 0-3.578-1.842-3.578H1.237c-.92 0-1.456-1.04-.92-1.788L10.013.474c.214-.297.556-.474.92-.474h28.894c.92 0 1.456 1.04.92 1.788l-7.48 10.471c-1.07 1.498 0 3.579 1.842 3.579h11.377c.943 0 1.473 1.088.89 1.83L25.947 44.94z"/>
  </g>

  <!-- Title -->
  <text x="80" y="358" font-family="-apple-system, BlinkMacSystemFont, 'Segoe UI', Helvetica, Arial, sans-serif" font-size="72" font-weight="700" letter-spacing="-1" fill="#1a1a1a">OAuth Token Policy</text>

  <!-- Subtitle line 1 -->
  <text x="80" y="420" font-family="-apple-system, BlinkMacSystemFont, 'Segoe UI', Helvetica, Arial, sans-serif" font-size="30" fill="#555555">Token lifetime and session policy recommendations</text>
  <!-- Subtitle line 2 -->
  <text x="80" y="460" font-family="-apple-system, BlinkMacSystemFont, 'Segoe UI', Helvetica, Arial, sans-serif" font-size="30" fill="#555555">grounded in NIST SP 800-63B and RFC 9700.</text>

  <!-- Domain -->
  <text x="80" y="578" font-family="-apple-system, BlinkMacSystemFont, 'Segoe UI', Helvetica, Arial, sans-serif" font-size="22" fill="#1662dd">token-policy.nalegave.com</text>

  <!-- Bottom rule -->
  <rect x="80" y="548" width="1040" height="1" fill="#e5e5e5"/>
</svg>
